<?xml version="1.0" encoding="utf-8" ?>
<svg xmlns="http://www.w3.org/2000/svg" xmlns:cc="http://creativecommons.org/ns" xmlns:dc="http://purl.org/dc/elements/1.1/" xmlns:ev="http://www.w3.org/2001/xml-events" xmlns:inkscape="http://www.inkscape.org/namespaces/inkscape" xmlns:rdf="http://www.w3.org/1999/02/22-rdf-syntax-ns" xmlns:sodipodi="http://sodipodi.sourceforge.net/DTD/sodipodi-0.dtd" xmlns:xlink="http://www.w3.org/1999/xlink" baseProfile="tiny" height="118.9cm" version="1.2" viewBox="0 0 3178.5826771653547 4493.858267716536" width="84.1cm">
  <metadata>
    <rdf:RDF>
      <cc:Work>
        <dc:format>image/svg+xml</dc:format>
        <dc:source>Generated with vsketch</dc:source>
        <dc:date>2024-12-25T13:46:31.006430</dc:date>
      </cc:Work>
    </rdf:RDF>
  </metadata>
  <defs/>
  <g fill="none" id="layer1" inkscape:groupmode="layer" inkscape:label="1" stroke="#0000ff" style="display:inline">
    <line x1="0.0" x2="2645.6693" y1="0.0" y2="0.0"/>
    <line x1="0.0" x2="0.0" y1="0.0" y2="4157.4803"/>
    <line x1="37.7953" x2="37.7953" y1="0.0" y2="9.4488"/>
    <line x1="75.5906" x2="75.5906" y1="0.0" y2="9.4488"/>
    <line x1="113.3858" x2="113.3858" y1="0.0" y2="9.4488"/>
    <line x1="151.1811" x2="151.1811" y1="0.0" y2="9.4488"/>
    <line x1="188.9764" x2="188.9764" y1="0.0" y2="9.4488"/>
    <line x1="226.7717" x2="226.7717" y1="0.0" y2="9.4488"/>
    <line x1="264.5669" x2="264.5669" y1="0.0" y2="9.4488"/>
    <line x1="302.3622" x2="302.3622" y1="0.0" y2="9.4488"/>
    <line x1="340.1575" x2="340.1575" y1="0.0" y2="9.4488"/>
    <line x1="377.9528" x2="377.9528" y1="0.0" y2="18.8976"/>
    <line x1="415.748" x2="415.748" y1="0.0" y2="9.4488"/>
    <line x1="453.5433" x2="453.5433" y1="0.0" y2="9.4488"/>
    <line x1="491.3386" x2="491.3386" y1="0.0" y2="9.4488"/>
    <line x1="529.1339" x2="529.1339" y1="0.0" y2="9.4488"/>
    <line x1="566.9291" x2="566.9291" y1="0.0" y2="9.4488"/>
    <line x1="604.7244" x2="604.7244" y1="0.0" y2="9.4488"/>
    <line x1="642.5197" x2="642.5197" y1="0.0" y2="9.4488"/>
    <line x1="680.315" x2="680.315" y1="0.0" y2="9.4488"/>
    <line x1="718.1102" x2="718.1102" y1="0.0" y2="9.4488"/>
    <line x1="755.9055" x2="755.9055" y1="0.0" y2="18.8976"/>
    <line x1="793.7008" x2="793.7008" y1="0.0" y2="9.4488"/>
    <line x1="831.4961" x2="831.4961" y1="0.0" y2="9.4488"/>
    <line x1="869.2913" x2="869.2913" y1="0.0" y2="9.4488"/>
    <line x1="907.0866" x2="907.0866" y1="0.0" y2="9.4488"/>
    <line x1="944.8819" x2="944.8819" y1="0.0" y2="9.4488"/>
    <line x1="982.6772" x2="982.6772" y1="0.0" y2="9.4488"/>
    <line x1="1020.4724" x2="1020.4724" y1="0.0" y2="9.4488"/>
    <line x1="1058.2677" x2="1058.2677" y1="0.0" y2="9.4488"/>
    <line x1="1096.063" x2="1096.063" y1="0.0" y2="9.4488"/>
    <line x1="1133.8583" x2="1133.8583" y1="0.0" y2="18.8976"/>
    <line x1="1171.6535" x2="1171.6535" y1="0.0" y2="9.4488"/>
    <line x1="1209.4488" x2="1209.4488" y1="0.0" y2="9.4488"/>
    <line x1="1247.2441" x2="1247.2441" y1="0.0" y2="9.4488"/>
    <line x1="1285.0394" x2="1285.0394" y1="0.0" y2="9.4488"/>
    <line x1="1322.8346" x2="1322.8346" y1="0.0" y2="9.4488"/>
    <line x1="1360.6299" x2="1360.6299" y1="0.0" y2="9.4488"/>
    <line x1="1398.4252" x2="1398.4252" y1="0.0" y2="9.4488"/>
    <line x1="1436.2205" x2="1436.2205" y1="0.0" y2="9.4488"/>
    <line x1="1474.0157" x2="1474.0157" y1="0.0" y2="9.4488"/>
    <line x1="1511.811" x2="1511.811" y1="0.0" y2="18.8976"/>
    <line x1="1549.6063" x2="1549.6063" y1="0.0" y2="9.4488"/>
    <line x1="1587.4016" x2="1587.4016" y1="0.0" y2="9.4488"/>
    <line x1="1625.1969" x2="1625.1969" y1="0.0" y2="9.4488"/>
    <line x1="1662.9921" x2="1662.9921" y1="0.0" y2="9.4488"/>
    <line x1="1700.7874" x2="1700.7874" y1="0.0" y2="9.4488"/>
    <line x1="1738.5827" x2="1738.5827" y1="0.0" y2="9.4488"/>
    <line x1="1776.378" x2="1776.378" y1="0.0" y2="9.4488"/>
    <line x1="1814.1732" x2="1814.1732" y1="0.0" y2="9.4488"/>
    <line x1="1851.9685" x2="1851.9685" y1="0.0" y2="9.4488"/>
    <line x1="1889.7638" x2="1889.7638" y1="0.0" y2="18.8976"/>
    <line x1="1927.5591" x2="1927.5591" y1="0.0" y2="9.4488"/>
    <line x1="1965.3543" x2="1965.3543" y1="0.0" y2="9.4488"/>
    <line x1="2003.1496" x2="2003.1496" y1="0.0" y2="9.4488"/>
    <line x1="2040.9449" x2="2040.9449" y1="0.0" y2="9.4488"/>
    <line x1="2078.7402" x2="2078.7402" y1="0.0" y2="9.4488"/>
    <line x1="2116.5354" x2="2116.5354" y1="0.0" y2="9.4488"/>
    <line x1="2154.3307" x2="2154.3307" y1="0.0" y2="9.4488"/>
    <line x1="2192.126" x2="2192.126" y1="0.0" y2="9.4488"/>
    <line x1="2229.9213" x2="2229.9213" y1="0.0" y2="9.4488"/>
    <line x1="2267.7165" x2="2267.7165" y1="0.0" y2="18.8976"/>
    <line x1="2305.5118" x2="2305.5118" y1="0.0" y2="9.4488"/>
    <line x1="2343.3071" x2="2343.3071" y1="0.0" y2="9.4488"/>
    <line x1="2381.1024" x2="2381.1024" y1="0.0" y2="9.4488"/>
    <line x1="2418.8976" x2="2418.8976" y1="0.0" y2="9.4488"/>
    <line x1="2456.6929" x2="2456.6929" y1="0.0" y2="9.4488"/>
    <line x1="2494.4882" x2="2494.4882" y1="0.0" y2="9.4488"/>
    <line x1="2532.2835" x2="2532.2835" y1="0.0" y2="9.4488"/>
    <line x1="2570.0787" x2="2570.0787" y1="0.0" y2="9.4488"/>
    <line x1="2607.874" x2="2607.874" y1="0.0" y2="9.4488"/>
    <line x1="2645.6693" x2="2645.6693" y1="0.0" y2="18.8976"/>
    <line x1="0.0" x2="9.4488" y1="37.7953" y2="37.7953"/>
    <line x1="0.0" x2="9.4488" y1="75.5906" y2="75.5906"/>
    <line x1="0.0" x2="9.4488" y1="113.3858" y2="113.3858"/>
    <line x1="0.0" x2="9.4488" y1="151.1811" y2="151.1811"/>
    <line x1="0.0" x2="9.4488" y1="188.9764" y2="188.9764"/>
    <line x1="0.0" x2="9.4488" y1="226.7717" y2="226.7717"/>
    <line x1="0.0" x2="9.4488" y1="264.5669" y2="264.5669"/>
    <line x1="0.0" x2="9.4488" y1="302.3622" y2="302.3622"/>
    <line x1="0.0" x2="9.4488" y1="340.1575" y2="340.1575"/>
    <line x1="0.0" x2="18.8976" y1="377.9528" y2="377.9528"/>
    <line x1="0.0" x2="9.4488" y1="415.748" y2="415.748"/>
    <line x1="0.0" x2="9.4488" y1="453.5433" y2="453.5433"/>
    <line x1="0.0" x2="9.4488" y1="491.3386" y2="491.3386"/>
    <line x1="0.0" x2="9.4488" y1="529.1339" y2="529.1339"/>
    <line x1="0.0" x2="9.4488" y1="566.9291" y2="566.9291"/>
    <line x1="0.0" x2="9.4488" y1="604.7244" y2="604.7244"/>
    <line x1="0.0" x2="9.4488" y1="642.5197" y2="642.5197"/>
    <line x1="0.0" x2="9.4488" y1="680.315" y2="680.315"/>
    <line x1="0.0" x2="9.4488" y1="718.1102" y2="718.1102"/>
    <line x1="0.0" x2="18.8976" y1="755.9055" y2="755.9055"/>
    <line x1="0.0" x2="9.4488" y1="793.7008" y2="793.7008"/>
    <line x1="0.0" x2="9.4488" y1="831.4961" y2="831.4961"/>
    <line x1="0.0" x2="9.4488" y1="869.2913" y2="869.2913"/>
    <line x1="0.0" x2="9.4488" y1="907.0866" y2="907.0866"/>
    <line x1="0.0" x2="9.4488" y1="944.8819" y2="944.8819"/>
    <line x1="0.0" x2="9.4488" y1="982.6772" y2="982.6772"/>
    <line x1="0.0" x2="9.4488" y1="1020.4724" y2="1020.4724"/>
    <line x1="0.0" x2="9.4488" y1="1058.2677" y2="1058.2677"/>
    <line x1="0.0" x2="9.4488" y1="1096.063" y2="1096.063"/>
    <line x1="0.0" x2="18.8976" y1="1133.8583" y2="1133.8583"/>
    <line x1="0.0" x2="9.4488" y1="1171.6535" y2="1171.6535"/>
    <line x1="0.0" x2="9.4488" y1="1209.4488" y2="1209.4488"/>
    <line x1="0.0" x2="9.4488" y1="1247.2441" y2="1247.2441"/>
    <line x1="0.0" x2="9.4488" y1="1285.0394" y2="1285.0394"/>
    <line x1="0.0" x2="9.4488" y1="1322.8346" y2="1322.8346"/>
    <line x1="0.0" x2="9.4488" y1="1360.6299" y2="1360.6299"/>
    <line x1="0.0" x2="9.4488" y1="1398.4252" y2="1398.4252"/>
    <line x1="0.0" x2="9.4488" y1="1436.2205" y2="1436.2205"/>
    <line x1="0.0" x2="9.4488" y1="1474.0157" y2="1474.0157"/>
    <line x1="0.0" x2="18.8976" y1="1511.811" y2="1511.811"/>
    <line x1="0.0" x2="9.4488" y1="1549.6063" y2="1549.6063"/>
    <line x1="0.0" x2="9.4488" y1="1587.4016" y2="1587.4016"/>
    <line x1="0.0" x2="9.4488" y1="1625.1969" y2="1625.1969"/>
    <line x1="0.0" x2="9.4488" y1="1662.9921" y2="1662.9921"/>
    <line x1="0.0" x2="9.4488" y1="1700.7874" y2="1700.7874"/>
    <line x1="0.0" x2="9.4488" y1="1738.5827" y2="1738.5827"/>
    <line x1="0.0" x2="9.4488" y1="1776.378" y2="1776.378"/>
    <line x1="0.0" x2="9.4488" y1="1814.1732" y2="1814.1732"/>
    <line x1="0.0" x2="9.4488" y1="1851.9685" y2="1851.9685"/>
    <line x1="0.0" x2="18.8976" y1="1889.7638" y2="1889.7638"/>
    <line x1="0.0" x2="9.4488" y1="1927.5591" y2="1927.5591"/>
    <line x1="0.0" x2="9.4488" y1="1965.3543" y2="1965.3543"/>
    <line x1="0.0" x2="9.4488" y1="2003.1496" y2="2003.1496"/>
    <line x1="0.0" x2="9.4488" y1="2040.9449" y2="2040.9449"/>
    <line x1="0.0" x2="9.4488" y1="2078.7402" y2="2078.7402"/>
    <line x1="0.0" x2="9.4488" y1="2116.5354" y2="2116.5354"/>
    <line x1="0.0" x2="9.4488" y1="2154.3307" y2="2154.3307"/>
    <line x1="0.0" x2="9.4488" y1="2192.126" y2="2192.126"/>
    <line x1="0.0" x2="9.4488" y1="2229.9213" y2="2229.9213"/>
    <line x1="0.0" x2="18.8976" y1="2267.7165" y2="2267.7165"/>
    <line x1="0.0" x2="9.4488" y1="2305.5118" y2="2305.5118"/>
    <line x1="0.0" x2="9.4488" y1="2343.3071" y2="2343.3071"/>
    <line x1="0.0" x2="9.4488" y1="2381.1024" y2="2381.1024"/>
    <line x1="0.0" x2="9.4488" y1="2418.8976" y2="2418.8976"/>
    <line x1="0.0" x2="9.4488" y1="2456.6929" y2="2456.6929"/>
    <line x1="0.0" x2="9.4488" y1="2494.4882" y2="2494.4882"/>
    <line x1="0.0" x2="9.4488" y1="2532.2835" y2="2532.2835"/>
    <line x1="0.0" x2="9.4488" y1="2570.0787" y2="2570.0787"/>
    <line x1="0.0" x2="9.4488" y1="2607.874" y2="2607.874"/>
    <line x1="0.0" x2="18.8976" y1="2645.6693" y2="2645.6693"/>
    <line x1="0.0" x2="9.4488" y1="2683.4646" y2="2683.4646"/>
    <line x1="0.0" x2="9.4488" y1="2721.2598" y2="2721.2598"/>
    <line x1="0.0" x2="9.4488" y1="2759.0551" y2="2759.0551"/>
    <line x1="0.0" x2="9.4488" y1="2796.8504" y2="2796.8504"/>
    <line x1="0.0" x2="9.4488" y1="2834.6457" y2="2834.6457"/>
    <line x1="0.0" x2="9.4488" y1="2872.4409" y2="2872.4409"/>
    <line x1="0.0" x2="9.4488" y1="2910.2362" y2="2910.2362"/>
    <line x1="0.0" x2="9.4488" y1="2948.0315" y2="2948.0315"/>
    <line x1="0.0" x2="9.4488" y1="2985.8268" y2="2985.8268"/>
    <line x1="0.0" x2="18.8976" y1="3023.622" y2="3023.622"/>
    <line x1="0.0" x2="9.4488" y1="3061.4173" y2="3061.4173"/>
    <line x1="0.0" x2="9.4488" y1="3099.2126" y2="3099.2126"/>
    <line x1="0.0" x2="9.4488" y1="3137.0079" y2="3137.0079"/>
    <line x1="0.0" x2="9.4488" y1="3174.8031" y2="3174.8031"/>
    <line x1="0.0" x2="9.4488" y1="3212.5984" y2="3212.5984"/>
    <line x1="0.0" x2="9.4488" y1="3250.3937" y2="3250.3937"/>
    <line x1="0.0" x2="9.4488" y1="3288.189" y2="3288.189"/>
    <line x1="0.0" x2="9.4488" y1="3325.9843" y2="3325.9843"/>
    <line x1="0.0" x2="9.4488" y1="3363.7795" y2="3363.7795"/>
    <line x1="0.0" x2="18.8976" y1="3401.5748" y2="3401.5748"/>
    <line x1="0.0" x2="9.4488" y1="3439.3701" y2="3439.3701"/>
    <line x1="0.0" x2="9.4488" y1="3477.1654" y2="3477.1654"/>
    <line x1="0.0" x2="9.4488" y1="3514.9606" y2="3514.9606"/>
    <line x1="0.0" x2="9.4488" y1="3552.7559" y2="3552.7559"/>
    <line x1="0.0" x2="9.4488" y1="3590.5512" y2="3590.5512"/>
    <line x1="0.0" x2="9.4488" y1="3628.3465" y2="3628.3465"/>
    <line x1="0.0" x2="9.4488" y1="3666.1417" y2="3666.1417"/>
    <line x1="0.0" x2="9.4488" y1="3703.937" y2="3703.937"/>
    <line x1="0.0" x2="9.4488" y1="3741.7323" y2="3741.7323"/>
    <line x1="0.0" x2="18.8976" y1="3779.5276" y2="3779.5276"/>
    <line x1="0.0" x2="9.4488" y1="3817.3228" y2="3817.3228"/>
    <line x1="0.0" x2="9.4488" y1="3855.1181" y2="3855.1181"/>
    <line x1="0.0" x2="9.4488" y1="3892.9134" y2="3892.9134"/>
    <line x1="0.0" x2="9.4488" y1="3930.7087" y2="3930.7087"/>
    <line x1="0.0" x2="9.4488" y1="3968.5039" y2="3968.5039"/>
    <line x1="0.0" x2="9.4488" y1="4006.2992" y2="4006.2992"/>
    <line x1="0.0" x2="9.4488" y1="4044.0945" y2="4044.0945"/>
    <line x1="0.0" x2="9.4488" y1="4081.8898" y2="4081.8898"/>
    <line x1="0.0" x2="9.4488" y1="4119.685" y2="4119.685"/>
    <line x1="0.0" x2="18.8976" y1="4157.4803" y2="4157.4803"/>
  </g>
</svg>
